{
  "asset": {
    "version": "2.0",
    "generator": "THREE.GLTFExporter"
  },
  "scenes": [
    {
      "nodes": [
        0
      ]
    }
  ],
  "scene": 0,
  "nodes": [
    {
      "children": [
        4
      ],
      "matrix": [
        0.01,
        0,
        0,
        0,
        0,
        0.01,
        0,
        0,
        0,
        0,
        0.01,
        0,
        0,
        0,
        0,
        1
      ]
    },
    {
      "matrix": [
        2.220446049250313e-16,
        -2.220446049250313e-16,
        1,
        0,
        1,
        0,
        -2.220446049250313e-16,
        0,
        0,
        1,
        2.220446049250313e-16,
        0,
        0,
        0,
        0,
        1
      ],
      "name": "Plane Sculpt",
      "mesh": 0
    },
    {
      "matrix": [
        2.220446049250313e-16,
        0,
        -1,
        0,
        -6.123233995736767e-17,
        1,
        -1.232595164407831e-32,
        0,
        1,
        6.123233995736767e-17,
        2.220446049250313e-16,
        0,
        1000.0000000000005,
        -3.9351501092909644e-13,
        -1.4598251747810378e-12,
        1
      ],
      "camera": 0
    },
    {
      "matrix": [
        1,
        0,
        0,
        0,
        0,
        1,
        0,
        0,
        0,
        0,
        1,
        0,
        0,
        1,
        0,
        1
      ],
      "name": "Default Ambient Light"
    },
    {
      "name": "Scene",
      "children": [
        1,
        2,
        3
      ]
    }
  ],
  "bufferViews": [
    {
      "buffer": 0,
      "byteOffset": 0,
      "byteLength": 786432,
      "target": 34962,
      "byteStride": 12
    },
    {
      "buffer": 0,
      "byteOffset": 786432,
      "byteLength": 786432,
      "target": 34962,
      "byteStride": 12
    },
    {
      "buffer": 0,
      "byteOffset": 1572864,
      "byteLength": 393216,
      "target": 34963
    }
  ],
  "buffers": [
    {
      "byteLength": 1966080,
      "uri": "data:application/octet-stream;base64,"
    }
  ],
  "accessors": [
    {
      "bufferView": 0,
      "componentType": 5126,
      "count": 65536,
      "max": [
        301.810791015625,
        266.0865173339844,
        147.2647247314453
      ],
      "min": [
        -301.3738708496094,
        -309.88775634765625,
        -27.761499404907227
      ],
      "type": "VEC3"
    },
    {
      "bufferView": 1,
      "componentType": 5126,
      "count": 65536,
      "max": [
        0.9997206926345825,
        0.8154109716415405,
        1
      ],
      "min": [
        -0.8463571667671204,
        -0.9839639663696289,
        -0.07584122568368912
      ],
      "type": "VEC3"
    },
    {
      "bufferView": 2,
      "componentType": 5125,
      "count": 98304,
      "max": [
        65535
      ],
      "min": [
        0
      ],
      "type": "SCALAR"
    }
  ],
  "materials": [
    {
      "pbrMetallicRoughness": {
        "baseColorFactor": [
          0.12477181755144427,
          0.12477181755144427,
          0.13286832154414627,
          1
        ],
        "metallicFactor": 0,
        "roughnessFactor": 0.98
      },
      "doubleSided": false
    }
  ],
  "meshes": [
    {
      "primitives": [
        {
          "mode": 4,
          "attributes": {
            "POSITION": 0,
            "NORMAL": 1
          },
          "extras": {
            "type": "SubdivGeometry",
            "parameters": {
              "width": 604.0567626953125,
              "height": 579.7801208496094,
              "depth": 206.89052963256836
            }
          },
          "indices": 2,
          "material": 0
        }
      ]
    }
  ],
  "cameras": [
    {
      "type": "orthographic",
      "orthographic": {
        "xmag": 6.400000000000001,
        "ymag": 3.0550000000000006,
        "zfar": 100000,
        "znear": 0
      }
    }
  ]
}